<?xml version="1.0" encoding="UTF-8" standalone="no"?>
<!DOCTYPE svg PUBLIC "-//W3C//DTD SVG 1.1//EN"
 "http://www.w3.org/Graphics/SVG/1.1/DTD/svg11.dtd">
<!-- Generated by graphviz version 2.38.0 (20140413.2041)
 -->
<!-- Title: %3 Pages: 1 -->
<svg width="1142pt" height="332pt"
 viewBox="0.00 0.00 1142.00 332.00" xmlns="http://www.w3.org/2000/svg" xmlns:xlink="http://www.w3.org/1999/xlink">
<g id="graph0" class="graph" transform="scale(1 1) rotate(0) translate(4 328)">
<title>%3</title>
<polygon fill="white" stroke="none" points="-4,4 -4,-328 1138,-328 1138,4 -4,4"/>
<!-- 0 -->
<g id="node1" class="node"><title>0</title>
<ellipse fill="none" stroke="black" cx="567" cy="-306" rx="27" ry="18"/>
<text text-anchor="middle" x="567" y="-302.3" font-family="Times,serif" font-size="14.00">B</text>
</g>
<!-- 1 -->
<g id="node2" class="node"><title>1</title>
<ellipse fill="none" stroke="black" cx="423" cy="-234" rx="27" ry="18"/>
<text text-anchor="middle" x="423" y="-230.3" font-family="Times,serif" font-size="14.00">C</text>
</g>
<!-- 0&#45;&#45;1 -->
<g id="edge1" class="edge"><title>0&#45;&#45;1</title>
<path fill="none" stroke="black" d="M545.752,-294.671C518.527,-281.437 471.602,-258.626 444.335,-245.371"/>
</g>
<!-- 2 -->
<g id="node3" class="node"><title>2</title>
<ellipse fill="none" stroke="black" cx="711" cy="-234" rx="27" ry="18"/>
<text text-anchor="middle" x="711" y="-230.3" font-family="Times,serif" font-size="14.00">C</text>
</g>
<!-- 0&#45;&#45;2 -->
<g id="edge2" class="edge"><title>0&#45;&#45;2</title>
<path fill="none" stroke="black" d="M588.248,-294.671C615.473,-281.437 662.398,-258.626 689.665,-245.371"/>
</g>
<!-- 3 -->
<g id="node4" class="node"><title>3</title>
<ellipse fill="none" stroke="black" cx="207" cy="-162" rx="27" ry="18"/>
<text text-anchor="middle" x="207" y="-158.3" font-family="Times,serif" font-size="14.00">A</text>
</g>
<!-- 1&#45;&#45;3 -->
<g id="edge3" class="edge"><title>1&#45;&#45;3</title>
<path fill="none" stroke="black" d="M399.059,-225.241C357.429,-211.75 272.193,-184.127 230.719,-170.687"/>
</g>
<!-- 4 -->
<g id="node5" class="node"><title>4</title>
<ellipse fill="none" stroke="black" cx="423" cy="-162" rx="27" ry="18"/>
<text text-anchor="middle" x="423" y="-158.3" font-family="Times,serif" font-size="14.00">A</text>
</g>
<!-- 1&#45;&#45;4 -->
<g id="edge4" class="edge"><title>1&#45;&#45;4</title>
<path fill="none" stroke="black" d="M423,-215.697C423,-204.846 423,-190.917 423,-180.104"/>
</g>
<!-- 5 -->
<g id="node6" class="node"><title>5</title>
<ellipse fill="none" stroke="black" cx="711" cy="-162" rx="27" ry="18"/>
<text text-anchor="middle" x="711" y="-158.3" font-family="Times,serif" font-size="14.00">A</text>
</g>
<!-- 2&#45;&#45;5 -->
<g id="edge5" class="edge"><title>2&#45;&#45;5</title>
<path fill="none" stroke="black" d="M711,-215.697C711,-204.846 711,-190.917 711,-180.104"/>
</g>
<!-- 6 -->
<g id="node7" class="node"><title>6</title>
<ellipse fill="none" stroke="black" cx="927" cy="-162" rx="27" ry="18"/>
<text text-anchor="middle" x="927" y="-158.3" font-family="Times,serif" font-size="14.00">A</text>
</g>
<!-- 2&#45;&#45;6 -->
<g id="edge6" class="edge"><title>2&#45;&#45;6</title>
<path fill="none" stroke="black" d="M734.941,-225.241C776.571,-211.75 861.807,-184.127 903.281,-170.687"/>
</g>
<!-- 7 -->
<g id="node8" class="node"><title>7</title>
<ellipse fill="none" stroke="black" cx="99" cy="-90" rx="27" ry="18"/>
<text text-anchor="middle" x="99" y="-86.3" font-family="Times,serif" font-size="14.00">D</text>
</g>
<!-- 3&#45;&#45;7 -->
<g id="edge7" class="edge"><title>3&#45;&#45;7</title>
<path fill="none" stroke="black" d="M188.188,-148.807C168.365,-135.959 137.338,-115.848 117.597,-103.053"/>
</g>
<!-- 8 -->
<g id="node9" class="node"><title>8</title>
<ellipse fill="none" stroke="black" cx="207" cy="-90" rx="27" ry="18"/>
<text text-anchor="middle" x="207" y="-86.3" font-family="Times,serif" font-size="14.00">D</text>
</g>
<!-- 3&#45;&#45;8 -->
<g id="edge8" class="edge"><title>3&#45;&#45;8</title>
<path fill="none" stroke="black" d="M207,-143.697C207,-132.846 207,-118.917 207,-108.104"/>
</g>
<!-- 9 -->
<g id="node10" class="node"><title>9</title>
<ellipse fill="none" stroke="black" cx="387" cy="-90" rx="27" ry="18"/>
<text text-anchor="middle" x="387" y="-86.3" font-family="Times,serif" font-size="14.00">D</text>
</g>
<!-- 4&#45;&#45;9 -->
<g id="edge9" class="edge"><title>4&#45;&#45;9</title>
<path fill="none" stroke="black" d="M414.65,-144.765C408.835,-133.456 401.11,-118.437 395.304,-107.147"/>
</g>
<!-- 10 -->
<g id="node11" class="node"><title>10</title>
<ellipse fill="none" stroke="black" cx="459" cy="-90" rx="27" ry="18"/>
<text text-anchor="middle" x="459" y="-86.3" font-family="Times,serif" font-size="14.00">D</text>
</g>
<!-- 4&#45;&#45;10 -->
<g id="edge10" class="edge"><title>4&#45;&#45;10</title>
<path fill="none" stroke="black" d="M431.35,-144.765C437.165,-133.456 444.89,-118.437 450.696,-107.147"/>
</g>
<!-- 11 -->
<g id="node12" class="node"><title>11</title>
<ellipse fill="none" stroke="black" cx="675" cy="-90" rx="27" ry="18"/>
<text text-anchor="middle" x="675" y="-86.3" font-family="Times,serif" font-size="14.00">D</text>
</g>
<!-- 5&#45;&#45;11 -->
<g id="edge11" class="edge"><title>5&#45;&#45;11</title>
<path fill="none" stroke="black" d="M702.65,-144.765C696.835,-133.456 689.11,-118.437 683.304,-107.147"/>
</g>
<!-- 12 -->
<g id="node13" class="node"><title>12</title>
<ellipse fill="none" stroke="black" cx="747" cy="-90" rx="27" ry="18"/>
<text text-anchor="middle" x="747" y="-86.3" font-family="Times,serif" font-size="14.00">D</text>
</g>
<!-- 5&#45;&#45;12 -->
<g id="edge12" class="edge"><title>5&#45;&#45;12</title>
<path fill="none" stroke="black" d="M719.35,-144.765C725.165,-133.456 732.89,-118.437 738.696,-107.147"/>
</g>
<!-- 13 -->
<g id="node14" class="node"><title>13</title>
<ellipse fill="none" stroke="black" cx="927" cy="-90" rx="27" ry="18"/>
<text text-anchor="middle" x="927" y="-86.3" font-family="Times,serif" font-size="14.00">D</text>
</g>
<!-- 6&#45;&#45;13 -->
<g id="edge13" class="edge"><title>6&#45;&#45;13</title>
<path fill="none" stroke="black" d="M927,-143.697C927,-132.846 927,-118.917 927,-108.104"/>
</g>
<!-- 14 -->
<g id="node15" class="node"><title>14</title>
<ellipse fill="none" stroke="black" cx="1035" cy="-90" rx="27" ry="18"/>
<text text-anchor="middle" x="1035" y="-86.3" font-family="Times,serif" font-size="14.00">D</text>
</g>
<!-- 6&#45;&#45;14 -->
<g id="edge14" class="edge"><title>6&#45;&#45;14</title>
<path fill="none" stroke="black" d="M945.812,-148.807C965.635,-135.959 996.662,-115.848 1016.4,-103.053"/>
</g>
<!-- 15 -->
<g id="node16" class="node"><title>15</title>
<ellipse fill="none" stroke="black" cx="27" cy="-18" rx="27" ry="18"/>
<text text-anchor="middle" x="27" y="-14.3" font-family="Times,serif" font-size="14.00">1</text>
</g>
<!-- 7&#45;&#45;15 -->
<g id="edge15" class="edge"><title>7&#45;&#45;15</title>
<path fill="none" stroke="black" d="M84.4297,-74.8345C72.0202,-62.7697 54.2694,-45.5119 41.7957,-33.3847"/>
</g>
<!-- 16 -->
<g id="node17" class="node"><title>16</title>
<ellipse fill="none" stroke="black" cx="99" cy="-18" rx="27" ry="18"/>
<text text-anchor="middle" x="99" y="-14.3" font-family="Times,serif" font-size="14.00">1</text>
</g>
<!-- 7&#45;&#45;16 -->
<g id="edge16" class="edge"><title>7&#45;&#45;16</title>
<path fill="none" stroke="black" d="M99,-71.6966C99,-60.8463 99,-46.9167 99,-36.1043"/>
</g>
<!-- 17 -->
<g id="node18" class="node"><title>17</title>
<ellipse fill="none" stroke="black" cx="171" cy="-18" rx="27" ry="18"/>
<text text-anchor="middle" x="171" y="-14.3" font-family="Times,serif" font-size="14.00">1</text>
</g>
<!-- 8&#45;&#45;17 -->
<g id="edge17" class="edge"><title>8&#45;&#45;17</title>
<path fill="none" stroke="black" d="M198.65,-72.7646C192.835,-61.456 185.11,-46.4367 179.304,-35.1473"/>
</g>
<!-- 18 -->
<g id="node19" class="node"><title>18</title>
<ellipse fill="none" stroke="black" cx="243" cy="-18" rx="27" ry="18"/>
<text text-anchor="middle" x="243" y="-14.3" font-family="Times,serif" font-size="14.00">1</text>
</g>
<!-- 8&#45;&#45;18 -->
<g id="edge18" class="edge"><title>8&#45;&#45;18</title>
<path fill="none" stroke="black" d="M215.35,-72.7646C221.165,-61.456 228.89,-46.4367 234.696,-35.1473"/>
</g>
<!-- 19 -->
<g id="node20" class="node"><title>19</title>
<ellipse fill="none" stroke="black" cx="315" cy="-18" rx="27" ry="18"/>
<text text-anchor="middle" x="315" y="-14.3" font-family="Times,serif" font-size="14.00">1</text>
</g>
<!-- 9&#45;&#45;19 -->
<g id="edge19" class="edge"><title>9&#45;&#45;19</title>
<path fill="none" stroke="black" d="M372.43,-74.8345C360.02,-62.7697 342.269,-45.5119 329.796,-33.3847"/>
</g>
<!-- 20 -->
<g id="node21" class="node"><title>20</title>
<ellipse fill="none" stroke="black" cx="387" cy="-18" rx="27" ry="18"/>
<text text-anchor="middle" x="387" y="-14.3" font-family="Times,serif" font-size="14.00">1</text>
</g>
<!-- 9&#45;&#45;20 -->
<g id="edge20" class="edge"><title>9&#45;&#45;20</title>
<path fill="none" stroke="black" d="M387,-71.6966C387,-60.8463 387,-46.9167 387,-36.1043"/>
</g>
<!-- 21 -->
<g id="node22" class="node"><title>21</title>
<ellipse fill="none" stroke="black" cx="459" cy="-18" rx="27" ry="18"/>
<text text-anchor="middle" x="459" y="-14.3" font-family="Times,serif" font-size="14.00">1</text>
</g>
<!-- 10&#45;&#45;21 -->
<g id="edge21" class="edge"><title>10&#45;&#45;21</title>
<path fill="none" stroke="black" d="M459,-71.6966C459,-60.8463 459,-46.9167 459,-36.1043"/>
</g>
<!-- 22 -->
<g id="node23" class="node"><title>22</title>
<ellipse fill="none" stroke="black" cx="531" cy="-18" rx="27" ry="18"/>
<text text-anchor="middle" x="531" y="-14.3" font-family="Times,serif" font-size="14.00">1</text>
</g>
<!-- 10&#45;&#45;22 -->
<g id="edge22" class="edge"><title>10&#45;&#45;22</title>
<path fill="none" stroke="black" d="M473.57,-74.8345C485.98,-62.7697 503.731,-45.5119 516.204,-33.3847"/>
</g>
<!-- 23 -->
<g id="node24" class="node"><title>23</title>
<ellipse fill="none" stroke="black" cx="603" cy="-18" rx="27" ry="18"/>
<text text-anchor="middle" x="603" y="-14.3" font-family="Times,serif" font-size="14.00">1</text>
</g>
<!-- 11&#45;&#45;23 -->
<g id="edge23" class="edge"><title>11&#45;&#45;23</title>
<path fill="none" stroke="black" d="M660.43,-74.8345C648.02,-62.7697 630.269,-45.5119 617.796,-33.3847"/>
</g>
<!-- 24 -->
<g id="node25" class="node"><title>24</title>
<ellipse fill="none" stroke="black" cx="675" cy="-18" rx="27" ry="18"/>
<text text-anchor="middle" x="675" y="-14.3" font-family="Times,serif" font-size="14.00">1</text>
</g>
<!-- 11&#45;&#45;24 -->
<g id="edge24" class="edge"><title>11&#45;&#45;24</title>
<path fill="none" stroke="black" d="M675,-71.6966C675,-60.8463 675,-46.9167 675,-36.1043"/>
</g>
<!-- 25 -->
<g id="node26" class="node"><title>25</title>
<ellipse fill="none" stroke="black" cx="747" cy="-18" rx="27" ry="18"/>
<text text-anchor="middle" x="747" y="-14.3" font-family="Times,serif" font-size="14.00">1</text>
</g>
<!-- 12&#45;&#45;25 -->
<g id="edge25" class="edge"><title>12&#45;&#45;25</title>
<path fill="none" stroke="black" d="M747,-71.6966C747,-60.8463 747,-46.9167 747,-36.1043"/>
</g>
<!-- 26 -->
<g id="node27" class="node"><title>26</title>
<ellipse fill="none" stroke="black" cx="819" cy="-18" rx="27" ry="18"/>
<text text-anchor="middle" x="819" y="-14.3" font-family="Times,serif" font-size="14.00">1</text>
</g>
<!-- 12&#45;&#45;26 -->
<g id="edge26" class="edge"><title>12&#45;&#45;26</title>
<path fill="none" stroke="black" d="M761.57,-74.8345C773.98,-62.7697 791.731,-45.5119 804.204,-33.3847"/>
</g>
<!-- 27 -->
<g id="node28" class="node"><title>27</title>
<ellipse fill="none" stroke="black" cx="891" cy="-18" rx="27" ry="18"/>
<text text-anchor="middle" x="891" y="-14.3" font-family="Times,serif" font-size="14.00">1</text>
</g>
<!-- 13&#45;&#45;27 -->
<g id="edge27" class="edge"><title>13&#45;&#45;27</title>
<path fill="none" stroke="black" d="M918.65,-72.7646C912.835,-61.456 905.11,-46.4367 899.304,-35.1473"/>
</g>
<!-- 28 -->
<g id="node29" class="node"><title>28</title>
<ellipse fill="none" stroke="black" cx="963" cy="-18" rx="27" ry="18"/>
<text text-anchor="middle" x="963" y="-14.3" font-family="Times,serif" font-size="14.00">1</text>
</g>
<!-- 13&#45;&#45;28 -->
<g id="edge28" class="edge"><title>13&#45;&#45;28</title>
<path fill="none" stroke="black" d="M935.35,-72.7646C941.165,-61.456 948.89,-46.4367 954.696,-35.1473"/>
</g>
<!-- 29 -->
<g id="node30" class="node"><title>29</title>
<ellipse fill="none" stroke="black" cx="1035" cy="-18" rx="27" ry="18"/>
<text text-anchor="middle" x="1035" y="-14.3" font-family="Times,serif" font-size="14.00">1</text>
</g>
<!-- 14&#45;&#45;29 -->
<g id="edge29" class="edge"><title>14&#45;&#45;29</title>
<path fill="none" stroke="black" d="M1035,-71.6966C1035,-60.8463 1035,-46.9167 1035,-36.1043"/>
</g>
<!-- 30 -->
<g id="node31" class="node"><title>30</title>
<ellipse fill="none" stroke="black" cx="1107" cy="-18" rx="27" ry="18"/>
<text text-anchor="middle" x="1107" y="-14.3" font-family="Times,serif" font-size="14.00">1</text>
</g>
<!-- 14&#45;&#45;30 -->
<g id="edge30" class="edge"><title>14&#45;&#45;30</title>
<path fill="none" stroke="black" d="M1049.57,-74.8345C1061.98,-62.7697 1079.73,-45.5119 1092.2,-33.3847"/>
</g>
</g>
</svg>
